#!OML:ASF E:\acrobat2\Project_11_07_03\Capture day 1\Session 1\Acrobat.ASF
:FULLY-SPECIFIED
:DEGREES
393
root 10.362 13.4418 22.8056 -69.8679 -2.29747 -179.633
lowerback 17.6006 1.75169 4.7036
upperback 19.0717 0.12758 -0.94809
thorax 11.5213 0.352562 -3.75335
lowerneck -2.53148 -1.88357 -1.60771
upperneck 21.3098 -3.4553 2.65693
head 6.98105 -1.4701 0.910601
rclavicle -1.72943e-014 -8.34896e-015
rhumerus 59.5774 -13.0683 -71.8487
rradius 80.1216
rwrist 11.6207
rhand -42.082 -84.8653
rfingers 7.12502
rthumb -14.9741 -245.696
lclavicle -1.72943e-014 -8.34896e-015
lhumerus 67.1041 6.56812 67.3694
lradius 79.2201
lwrist -0.948075
lhand -56.8167 -48.3112
lfingers 7.12502
lthumb -29.1164 -20.5675
rfemur -59.6831 -17.2788 -22.0592
rtibia 10.4953
rfoot -29.7531 -27.0566
rtoes -2.46323
lfemur -67.9683 28.6481 9.2322
ltibia 16.1007
lfoot -17.3229 -4.23952
ltoes 54.2597
394
root 10.3723 13.3535 22.3916 -67.7525 -2.48864 -179.931
lowerback 18.0727 1.56414 4.52341
upperback 19.0993 -0.0520649 -0.848472
thorax 11.2681 0.271193 -3.51851
lowerneck -2.93862 -1.94804 -2.17909
upperneck 22.2102 -3.60284 3.05883
head 7.36801 -1.51119 1.12636
rclavicle -3.3197e-014 9.93923e-015
rhumerus 59.2566 -12.7788 -72.1162
rradius 82.3375
rwrist 12.0392
rhand -41.8554 -85.234
rfingers 7.12502
rthumb -14.7559 -245.311
lclavicle -3.3197e-014 9.93923e-015
lhumerus 66.723 7.49873 67.4694
lradius 81.7212
lwrist -1.07167
lhand -56.9136 -49.1726
lfingers 7.12502
lthumb -29.209 -21.445
rfemur -57.2991 -13.6114 -26.9522
rtibia 7.47046
rfoot -34.3452 -28.7866
rtoes 2.93111
lfemur -65.3052 27.659 11.3091
ltibia 12.1309
lfoot -17.6287 -2.58396
ltoes 53.2195
395
root 10.3835 13.2582 21.9837 -65.8228 -2.66166 -180.244
lowerback 18.8473 1.39747 4.48683
upperback 19.0825 -0.166171 -0.773052
thorax 10.8167 0.239473 -3.39295
lowerneck -3.30357 -2.26343 -2.38523
upperneck 23.1413 -3.98808 2.70927
head 7.75105 -1.69634 1.01775
rclavicle 9.74045e-015 -8.34896e-015
rhumerus 58.793 -12.7976 -72.1251
rradius 84.3421
rwrist 11.9083
rhand -41.8322 -85.8077
rfingers 7.12502
rthumb -14.7335 -244.736
lclavicle 9.74045e-015 -8.34896e-015
lhumerus 66.2737 8.07531 67.6917
lradius 84.1728
lwrist -0.945195
lhand -56.6118 -50.6484
lfingers 7.12502
lthumb -28.9207 -22.8711
rfemur -55.9137 -10.8994 -30.001
rtibia 5.70323
rfoot -37.6634 -29.8228
rtoes 1.85559
lfemur -63.5477 26.7421 13.2705
ltibia 9.88235
lfoot -18.2621 -1.06584
ltoes 51.7857
396
root 10.3937 13.1579 21.5837 -64.1157 -2.71593 -180.483
lowerback 19.88 1.24528 4.33343
upperback 19.0595 -0.266893 -0.733251
thorax 10.2266 0.201361 -3.24057
lowerneck -3.50251 -2.29548 -2.74121
upperneck 23.8845 -4.00841 2.66951
head 8.04358 -1.70344 1.06486
rclavicle 8.34896e-015 1.03368e-014
rhumerus 58.2157 -12.9307 -71.976
rradius 86.3933
rwrist 11.3721
rhand -42.2574 -86.6298
rfingers 7.12502
rthumb -15.1431 -243.944
lclavicle 8.34896e-015 1.03368e-014
lhumerus 65.7837 7.89316 68.2775
lradius 86.2229
lwrist -1.69919
lhand -56.4158 -52.5121
lfingers 7.12502
lthumb -28.7336 -24.7028
rfemur -55.1234 -9.32628 -31.3205
rtibia 4.95011
rfoot -39.0604 -30.031
rtoes -0.0538933
lfemur -61.8566 25.7799 15.1293
ltibia 8.41956
lfoot -18.9242 0.0932917
ltoes 50.5336
397
root 10.4054 13.0557 21.1917 -62.6468 -2.47272 -180.504
lowerback 20.4452 1.19657 4.27561
upperback 19.5077 -0.34503 -1.06101
thorax 10.5008 0.248641 -3.55768
lowerneck -3.70622 -2.40624 -1.95253
upperneck 24.1737 -4.01169 1.69923
head 8.14284 -1.70073 0.607773
rclavicle 6.95746e-016 7.15625e-015
rhumerus 58.0749 -13.4974 -72.5246
rradius 88.3602
rwrist 11.3634
rhand -42.6577 -87.383
rfingers 7.12502
rthumb -15.5287 -243.22
lclavicle 6.95746e-016 7.15625e-015
lhumerus 66.1422 9.63532 67.5813
lradius 88.3636
lwrist -0.365926
lhand -56.3926 -53.1259
lfingers 7.12502
lthumb -28.7114 -25.3129
rfemur -54.4357 -8.19748 -32.167
rtibia 4.49581
rfoot -39.3705 -29.6456
rtoes 2.01782
lfemur -60.1123 24.7251 16.6567
ltibia 7.4897
lfoot -19.9112 -0.290321
ltoes 50.758
398
root 10.4196 12.9515 20.8059 -61.3209 -2.27596 -180.488
lowerback 21.4587 1.13894 3.88388
upperback 19.7157 -0.415625 -1.20874
thorax 10.2258 0.228687 -3.4832
lowerneck -3.89677 -2.31589 -1.08739
upperneck 24.8932 -3.71552 0.438124
head 8.37426 -1.57024 0.0624529
rclavicle 1.41137e-014 -6.36111e-015
rhumerus 57.6843 -13.6826 -72.8367
rradius 90.2085
rwrist 11.5046
rhand -42.636 -87.7039
rfingers 7.12502
rthumb -15.5078 -242.898
lclavicle 1.41137e-014 -6.36111e-015
lhumerus 65.59 9.89422 67.8513
lradius 90.5377
lwrist -1.01819
lhand -56.5731 -53.4602
lfingers 7.12502
lthumb -28.8838 -25.6766
rfemur -53.6099 -6.92909 -32.8167
rtibia 3.79921
rfoot -39.1947 -29.6825
rtoes 5.31668
lfemur -58.3151 23.6376 18.2207
ltibia 6.79036
lfoot -21.2943 -0.882038
ltoes 52.0211
399
root 10.4331 12.8449 20.4238 -60.0644 -2.2898 -180.568
lowerback 22.5105 0.780308 2.55544
upperback 19.9222 -1.07272 -0.815588
thorax 9.86953 -0.25086 -2.20198
lowerneck -2.73268 -1.31745 -1.56037
upperneck 24.4422 -1.97226 -0.610453
head 7.98878 -0.883679 -0.0505625
rclavicle 1.3418e-015 -1.19271e-015
rhumerus 58.2339 -11.8475 -72.7855
rradius 91.7877
rwrist 11.5534
rhand -42.268 -88.0765
rfingers 7.12502
rthumb -15.1534 -242.498
lclavicle 1.3418e-015 -1.19271e-015
lhumerus 64.3838 11.8765 68.6788
lradius 92.3729
lwrist -2.02357
lhand -57.0316 -54.2606
lfingers 7.12502
lthumb -29.3216 -26.5526
rfemur -52.6227 -5.44594 -33.1769
rtibia 2.87855
rfoot -39.3371 -29.807
rtoes 7.32667
lfemur -56.5038 22.4653 19.969
ltibia 6.14571
lfoot -22.8414 -0.459025
ltoes 49.6467
400
root 10.4412 12.7319 20.0489 -58.9602 -2.01728 -180.491
lowerback 23.4238 0.688652 2.10355
upperback 20.2432 -1.26213 -0.879247
thorax 9.81279 -0.334586 -1.97594
lowerneck -0.894232 -1.01138 -1.68725
upperneck 24.0588 -1.41172 -1.05667
head 7.5272 -0.623568 -0.114702
rclavicle 5.86415e-015 -4.17448e-015
rhumerus 58.1095 -11.6316 -73.0545
rradius 93.4651
rwrist 11.7531
rhand -41.8692 -88.3685
rfingers 7.12502
rthumb -14.7691 -242.178
lclavicle 5.86415e-015 -4.17448e-015
lhumerus 64.3555 12.2562 69.4118
lradius 93.842
lwrist -2.73312
lhand -57.4521 -55.9366
lfingers 7.12502
lthumb -29.7231 -28.2996
rfemur -51.4695 -3.94421 -33.9057
rtibia 1.87709
rfoot -39.87 -29.9244
rtoes 7.572
lfemur -54.6018 20.973 21.2789
ltibia 5.43137
lfoot -24.2554 -0.181223
ltoes 49.1712
401
root 10.4478 12.6094 19.6846 -57.9788 -1.68439 -180.33
lowerback 24.6846 0.766711 1.79773
upperback 20.4175 -1.16052 -1.00479
thorax 9.42549 -0.249409 -1.93441
lowerneck -2.19471 -1.44319 -2.08093
upperneck 24.8421 -1.96739 -0.942572
head 8.03148 -0.902422 -0.0608606
rclavicle 1.717e-014 1.07344e-014
rhumerus 57.7249 -11.8382 -73.3558
rradius 94.819
rwrist 12.0994
rhand -41.7579 -88.683
rfingers 7.12502
rthumb -14.662 -241.855
lclavicle 1.717e-014 1.07344e-014
lhumerus 64.2647 12.066 69.8968
lradius 95.3675
lwrist -3.19814
lhand -57.6805 -57.0215
lfingers 7.12502
lthumb -29.941 -29.4235
rfemur -50.2017 -2.34095 -34.7195
rtibia 0.769542
rfoot -40.1716 -30.1976
rtoes 8.46006
lfemur -52.5768 19.3464 22.45
ltibia 4.59634
lfoot -25.45 -0.110524
ltoes 49.2643
402
root 10.4611 12.4838 19.3238 -56.943 -1.81799 -180.37
lowerback 25.7989 0.879756 2.20964
upperback 20.7333 -0.907054 -1.16136
thorax 9.32384 0.0184919 -2.36306
lowerneck -2.63679 -2.26493 -3.5352
upperneck 26.0075 -3.49574 1.40459
head 8.59276 -1.46807 0.85742
rclavicle -5.71506e-015 -9.54166e-015
rhumerus 57.5484 -12.5748 -73.8905
rradius 95.9535
rwrist 12.5891
rhand -41.8737 -89.0772
rfingers 7.12502
rthumb -14.7735 -241.469
lclavicle -5.71506e-015 -9.54166e-015
lhumerus 65.4786 10.4552 70.5761
lradius 95.8755
lwrist -4.81943
lhand -57.8554 -58.0672
lfingers 7.12502
lthumb -30.1079 -30.4995
rfemur -49.0283 -0.502107 -34.8828
rtibia -0.367867
rfoot -40.5808 -30.2166
rtoes 11.9339
lfemur -50.5833 17.9113 24.1333
ltibia 3.70018
lfoot -26.4936 0.374012
ltoes 48.5994
403
root 10.476 12.3572 18.9594 -55.7906 -1.96711 -180.395
lowerback 26.9623 0.909481 2.52719
upperback 20.905 -0.725308 -1.34461
thorax 9.02347 0.240873 -2.76156
lowerneck -2.95508 -2.13472 -2.6109
upperneck 25.6701 -3.24091 0.974332
head 8.50236 -1.31132 0.569837
rclavicle -2.8948e-015 3.97569e-016
rhumerus 57.4019 -13.0238 -74.3735
rradius 96.8656
rwrist 13.0711
rhand -41.7987 -89.0773
rfingers 7.12502
rthumb -14.7012 -241.464
lclavicle -2.8948e-015 3.97569e-016
lhumerus 66.1713 9.35821 70.9837
lradius 96.5122
lwrist -6.12207
lhand -58.1234 -59.7303
lfingers 7.12502
lthumb -30.3636 -32.2095
rfemur -48.0556 1.26208 -35.0081
rtibia -1.36589
rfoot -41.578 -29.9667
rtoes 15.7534
lfemur -48.7922 16.4798 25.6929
ltibia 2.83368
lfoot -27.4504 0.485831
ltoes 48.5121
404
root 10.4865 12.225 18.5934 -54.5745 -1.73736 -180.225
lowerback 28.1938 0.870954 2.55843
upperback 21.3166 -0.649733 -1.78857
thorax 8.33526 0.395063 -3.1092
lowerneck -3.1088 -2.10964 -1.73762
upperneck 26.0842 -3.12743 0.334005
head 8.64512 -1.20893 0.215152
rclavicle 7.95139e-016 1.82882e-014
rhumerus 57.3524 -13.3084 -75.0223
rradius 97.827
rwrist 13.4718
rhand -41.2462 -89.141
rfingers 7.12502
rthumb -14.1689 -241.362
lclavicle 7.95139e-016 1.82882e-014
lhumerus 66.2704 9.42839 70.9137
lradius 97.8233
lwrist -6.19677
lhand -58.4334 -61.1677
lfingers 7.12502
lthumb -30.6592 -33.7018
rfemur -47.2009 2.69835 -35.6637
rtibia -2.20196
rfoot -42.6781 -29.9612
rtoes 17.9278
lfemur -47.2446 14.847 26.6233
ltibia 2.04107
lfoot -28.3916 0.263823
ltoes 48.6555
405
root 10.4974 12.0883 18.2326 -53.3693 -1.59048 -180.128
lowerback 29.2564 0.792984 2.60758
upperback 21.4975 -0.645897 -2.08279
thorax 8.10109 0.514602 -3.42684
lowerneck -3.26583 -2.14893 -1.03628
upperneck 26.4168 -3.04858 -0.446062
head 8.76315 -1.15551 -0.162222
rclavicle -3.67752e-015 -8.74653e-015
rhumerus 57.5235 -14.0464 -75.4006
rradius 98.8172
rwrist 13.1411
rhand -40.9837 -89.5663
rfingers 7.12502
rthumb -13.9159 -240.919
lclavicle -3.67752e-015 -8.74653e-015
lhumerus 66.152 9.65272 70.9181
lradius 99.5391
lwrist -5.95179
lhand -58.5065 -62.0384
lfingers 7.12502
lthumb -30.7289 -34.5856
rfemur -46.3826 4.10798 -36.2028
rtibia -2.92975
rfoot -43.8582 -30.0831
rtoes 19.7937
lfemur -45.8333 13.2071 27.6096
ltibia 1.36936
lfoot -29.2986 0.632177
ltoes 48.2802
406
root 10.5114 11.949 17.8771 -52.1598 -1.60151 -180.064
lowerback 30.3965 0.693359 2.59852
upperback 21.5698 -0.656436 -2.27477
thorax 7.72308 0.607011 -3.60058
lowerneck -3.53214 -2.11886 -1.52503
upperneck 26.739 -2.99891 -0.0715908
head 8.94036 -1.11914 0.0510588
rclavicle -8.34896e-015 1.98785e-014
rhumerus 57.1656 -14.1421 -75.7564
rradius 100.086
rwrist 13.4366
rhand -41.2325 -89.9919
rfingers 7.12502
rthumb -14.1557 -240.51
lclavicle -8.34896e-015 1.98785e-014
lhumerus 65.9883 9.78815 70.9489
lradius 100.789
lwrist -6.05101
lhand -58.6018 -63.308
lfingers 7.12502
lthumb -30.8197 -35.8723
rfemur -45.7151 5.6063 -36.5484
rtibia -3.46045
rfoot -45.4376 -29.9195
rtoes 22.1168
lfemur -44.4601 11.6602 28.7339
ltibia 0.721952
lfoot -30.1727 1.40866
ltoes 48.1094
407
root 10.5241 11.8035 17.521 -50.8075 -1.51205 -179.922
lowerback 31.4904 0.589967 2.46099
upperback 21.642 -0.690974 -2.48891
thorax 7.37307 0.683092 -3.72485
lowerneck -3.32545 -2.07147 -1.81349
upperneck 27.0402 -3.00603 0.560134
head 9.02367 -1.04709 0.323615
rclavicle 4.47266e-015 7.95139e-016
rhumerus 57.1095 -14.1719 -76.1009
rradius 100.986
rwrist 13.9588
rhand -41.4712 -269.713
rfingers 7.12502
rthumb -14.3857 -240.232
lclavicle 4.47266e-015 7.95139e-016
lhumerus 66.0194 9.9142 70.9722
lradius 101.71
lwrist -6.36449
lhand -58.8285 -65.4063
lfingers 7.12502
lthumb -31.0359 -38.0117
rfemur -45.1986 6.88197 -37.0802
rtibia -3.92017
rfoot -46.8592 -29.7753
rtoes 23.9054
lfemur -43.319 10.1463 29.6249
ltibia 0.105154
lfoot -31.2523 1.7491
ltoes 48.5235
